<mxfile host="Electron" modified="2023-06-10T05:48:02.261Z" agent="Mozilla/5.0 (Windows NT 10.0; Win64; x64) AppleWebKit/537.36 (KHTML, like Gecko) draw.io/21.3.7 Chrome/112.0.5615.204 Electron/24.5.0 Safari/537.36" etag="RsU1JHFpIhmaD8jULdx9" version="21.3.7" type="device">
  <diagram name="PÃ¡gina-1" id="xAY7Q4JVNBK975qAJ0zJ">
    <mxGraphModel dx="2390" dy="2562" grid="1" gridSize="10" guides="1" tooltips="1" connect="1" arrows="1" fold="1" page="1" pageScale="1" pageWidth="827" pageHeight="1169" math="0" shadow="0">
      <root>
        <mxCell id="0" />
        <mxCell id="1" parent="0" />
        <mxCell id="C1L38_kdIar_jfCzdg87-63" value="&lt;font color=&quot;#1f1e1e&quot;&gt;&lt;b&gt;&lt;i&gt;Personal Computer&lt;/i&gt;&lt;/b&gt;&lt;/font&gt;" style="points=[[0,0,0],[0.25,0,0],[0.5,0,0],[0.75,0,0],[1,0,0],[1,0.25,0],[1,0.5,0],[1,0.75,0],[1,1,0],[0.75,1,0],[0.5,1,0],[0.25,1,0],[0,1,0],[0,0.75,0],[0,0.5,0],[0,0.25,0]];rounded=1;absoluteArcSize=1;arcSize=2;html=1;strokeColor=none;gradientColor=none;shadow=0;dashed=0;fontSize=12;fontColor=#9E9E9E;align=left;verticalAlign=top;spacing=10;spacingTop=-4;whiteSpace=wrap;fillColor=#EFEBE9;glass=0;" vertex="1" parent="1">
          <mxGeometry x="100" width="1800" height="876" as="geometry" />
        </mxCell>
        <mxCell id="C1L38_kdIar_jfCzdg87-2" value="&lt;font color=&quot;#0f0f0f&quot;&gt;&lt;b&gt;&lt;i&gt;Hortonworks Machine: Fuente de datos - Sakila&lt;/i&gt;&lt;/b&gt;&lt;/font&gt;" style="points=[[0,0,0],[0.25,0,0],[0.5,0,0],[0.75,0,0],[1,0,0],[1,0.25,0],[1,0.5,0],[1,0.75,0],[1,1,0],[0.75,1,0],[0.5,1,0],[0.25,1,0],[0,1,0],[0,0.75,0],[0,0.5,0],[0,0.25,0]];rounded=1;absoluteArcSize=1;arcSize=2;html=1;strokeColor=#ae4132;shadow=0;dashed=0;fontSize=12;align=left;verticalAlign=top;spacing=10;spacingTop=-4;whiteSpace=wrap;fillColor=#fad9d5;glass=0;" vertex="1" parent="1">
          <mxGeometry x="140" y="54" width="890" height="780" as="geometry" />
        </mxCell>
        <mxCell id="C1L38_kdIar_jfCzdg87-3" value="Ecosistema Hadoop" style="sketch=0;points=[[0,0,0],[0.25,0,0],[0.5,0,0],[0.75,0,0],[1,0,0],[1,0.25,0],[1,0.5,0],[1,0.75,0],[1,1,0],[0.75,1,0],[0.5,1,0],[0.25,1,0],[0,1,0],[0,0.75,0],[0,0.5,0],[0,0.25,0]];rounded=1;absoluteArcSize=1;arcSize=2;html=1;strokeColor=#6D1F00;shadow=0;dashed=0;fontSize=12;align=left;verticalAlign=top;spacing=10;spacingTop=-4;whiteSpace=wrap;fillColor=#a0522d;fontColor=#ffffff;" vertex="1" parent="1">
          <mxGeometry x="280" y="281" width="670" height="488" as="geometry" />
        </mxCell>
        <mxCell id="C1L38_kdIar_jfCzdg87-8" value="" style="shape=image;verticalLabelPosition=bottom;labelBackgroundColor=default;verticalAlign=top;aspect=fixed;imageAspect=0;image=https://www.todopostgresql.com/wp-content/uploads/2021/04/mysql2.png;" vertex="1" parent="1">
          <mxGeometry x="354" y="110" width="132" height="132" as="geometry" />
        </mxCell>
        <mxCell id="C1L38_kdIar_jfCzdg87-17" value="Ecosistema Hadoop:Transferencia" style="sketch=0;points=[[0,0,0],[0.25,0,0],[0.5,0,0],[0.75,0,0],[1,0,0],[1,0.25,0],[1,0.5,0],[1,0.75,0],[1,1,0],[0.75,1,0],[0.5,1,0],[0.25,1,0],[0,1,0],[0,0.75,0],[0,0.5,0],[0,0.25,0]];rounded=1;absoluteArcSize=1;arcSize=2;html=1;strokeColor=#005700;shadow=0;dashed=0;fontSize=12;align=left;verticalAlign=top;spacing=10;spacingTop=-4;whiteSpace=wrap;fillColor=#16da16;fontColor=#ffffff;" vertex="1" parent="1">
          <mxGeometry x="320" y="330" width="270" height="404" as="geometry" />
        </mxCell>
        <mxCell id="C1L38_kdIar_jfCzdg87-12" value="" style="sketch=0;outlineConnect=0;fontColor=#232F3E;gradientColor=none;fillColor=#4D27AA;strokeColor=none;dashed=0;verticalLabelPosition=bottom;verticalAlign=top;align=center;html=1;fontSize=12;fontStyle=0;aspect=fixed;pointerEvents=1;shape=mxgraph.aws4.hdfs_cluster;" vertex="1" parent="1">
          <mxGeometry x="398.35" y="560" width="130" height="130" as="geometry" />
        </mxCell>
        <mxCell id="C1L38_kdIar_jfCzdg87-18" value="Ecosistema Hadoop:ETL" style="sketch=0;points=[[0,0,0],[0.25,0,0],[0.5,0,0],[0.75,0,0],[1,0,0],[1,0.25,0],[1,0.5,0],[1,0.75,0],[1,1,0],[0.75,1,0],[0.5,1,0],[0.25,1,0],[0,1,0],[0,0.75,0],[0,0.5,0],[0,0.25,0]];rounded=1;absoluteArcSize=1;arcSize=2;html=1;strokeColor=#006EAF;shadow=0;dashed=0;fontSize=12;align=left;verticalAlign=top;spacing=10;spacingTop=-4;whiteSpace=wrap;fillColor=#1ba1e2;fontColor=#ffffff;" vertex="1" parent="1">
          <mxGeometry x="650" y="330" width="260" height="404" as="geometry" />
        </mxCell>
        <mxCell id="C1L38_kdIar_jfCzdg87-14" value="&lt;b&gt;&lt;font color=&quot;#030303&quot;&gt;Hadoop HDFS&lt;/font&gt;&lt;/b&gt;" style="text;html=1;strokeColor=none;fillColor=none;align=center;verticalAlign=middle;whiteSpace=wrap;rounded=0;" vertex="1" parent="1">
          <mxGeometry x="350" y="560" width="100" height="30" as="geometry" />
        </mxCell>
        <mxCell id="C1L38_kdIar_jfCzdg87-15" value="" style="shape=image;verticalLabelPosition=bottom;labelBackgroundColor=default;verticalAlign=top;aspect=fixed;imageAspect=0;image=https://upload.wikimedia.org/wikipedia/commons/thumb/b/b4/Apache_Sqoop_logo.svg/2560px-Apache_Sqoop_logo.svg.png;" vertex="1" parent="1">
          <mxGeometry x="362.28" y="400" width="195.44" height="50" as="geometry" />
        </mxCell>
        <mxCell id="C1L38_kdIar_jfCzdg87-23" value="" style="image;points=[];aspect=fixed;html=1;align=center;shadow=0;dashed=0;image=img/lib/allied_telesis/computer_and_terminals/Personal_Computer_with_Server.svg;" vertex="1" parent="1">
          <mxGeometry x="1740" y="-106.28" width="203.14" height="203.14" as="geometry" />
        </mxCell>
        <mxCell id="C1L38_kdIar_jfCzdg87-24" value="" style="shape=image;verticalLabelPosition=bottom;labelBackgroundColor=default;verticalAlign=top;aspect=fixed;imageAspect=0;image=https://varunblogsite.files.wordpress.com/2017/07/hadoop.png;" vertex="1" parent="1">
          <mxGeometry x="160" y="620" width="305.71" height="214" as="geometry" />
        </mxCell>
        <mxCell id="C1L38_kdIar_jfCzdg87-27" value="" style="endArrow=classic;html=1;rounded=1;exitX=1;exitY=0.5;exitDx=0;exitDy=0;entryX=0.894;entryY=-0.08;entryDx=0;entryDy=0;edgeStyle=orthogonalEdgeStyle;entryPerimeter=0;strokeColor=#d41111;shadow=1;" edge="1" parent="1" source="C1L38_kdIar_jfCzdg87-8" target="C1L38_kdIar_jfCzdg87-15">
          <mxGeometry relative="1" as="geometry">
            <mxPoint x="330" y="430" as="sourcePoint" />
            <mxPoint x="490" y="430" as="targetPoint" />
          </mxGeometry>
        </mxCell>
        <mxCell id="C1L38_kdIar_jfCzdg87-29" value="&lt;font color=&quot;#090b0b&quot; style=&quot;background-color: rgb(239, 235, 233);&quot;&gt;Source&lt;/font&gt;" style="edgeLabel;resizable=0;html=1;align=left;verticalAlign=bottom;" connectable="0" vertex="1" parent="C1L38_kdIar_jfCzdg87-27">
          <mxGeometry x="-1" relative="1" as="geometry" />
        </mxCell>
        <mxCell id="C1L38_kdIar_jfCzdg87-35" value="" style="endArrow=classic;html=1;entryX=1;entryY=0;entryDx=0;entryDy=0;edgeStyle=orthogonalEdgeStyle;shadow=1;rounded=1;exitX=0.454;exitY=1.02;exitDx=0;exitDy=0;exitPerimeter=0;strokeColor=#fc0303;" edge="1" parent="1" source="C1L38_kdIar_jfCzdg87-15" target="C1L38_kdIar_jfCzdg87-14">
          <mxGeometry relative="1" as="geometry">
            <mxPoint x="640" y="210" as="sourcePoint" />
            <mxPoint x="800" y="210" as="targetPoint" />
            <Array as="points">
              <mxPoint x="450" y="451" />
            </Array>
          </mxGeometry>
        </mxCell>
        <mxCell id="C1L38_kdIar_jfCzdg87-38" value="&lt;font style=&quot;background-color: rgb(22, 218, 22);&quot; color=&quot;#212121&quot;&gt;Target&lt;/font&gt;" style="edgeLabel;resizable=0;html=1;align=right;verticalAlign=bottom;" connectable="0" vertex="1" parent="C1L38_kdIar_jfCzdg87-35">
          <mxGeometry x="1" relative="1" as="geometry" />
        </mxCell>
        <mxCell id="C1L38_kdIar_jfCzdg87-41" value="" style="sketch=0;points=[[0,0,0],[0.25,0,0],[0.5,0,0],[0.75,0,0],[1,0,0],[0,1,0],[0.25,1,0],[0.5,1,0],[0.75,1,0],[1,1,0],[0,0.25,0],[0,0.5,0],[0,0.75,0],[1,0.25,0],[1,0.5,0],[1,0.75,0]];points=[[0,0,0],[0.25,0,0],[0.5,0,0],[0.75,0,0],[1,0,0],[0,1,0],[0.25,1,0],[0.5,1,0],[0.75,1,0],[1,1,0],[0,0.25,0],[0,0.5,0],[0,0.75,0],[1,0.25,0],[1,0.5,0],[1,0.75,0]];outlineConnect=0;fontColor=#232F3E;gradientColor=#F34482;gradientDirection=north;fillColor=#BC1356;strokeColor=#ffffff;dashed=0;verticalLabelPosition=bottom;verticalAlign=top;align=center;html=1;fontSize=12;fontStyle=0;aspect=fixed;shape=mxgraph.aws4.resourceIcon;resIcon=mxgraph.aws4.command_line_interface;" vertex="1" parent="1">
          <mxGeometry x="550" y="230" width="40" height="40" as="geometry" />
        </mxCell>
        <mxCell id="C1L38_kdIar_jfCzdg87-42" value="" style="sketch=0;points=[[0,0,0],[0.25,0,0],[0.5,0,0],[0.75,0,0],[1,0,0],[0,1,0],[0.25,1,0],[0.5,1,0],[0.75,1,0],[1,1,0],[0,0.25,0],[0,0.5,0],[0,0.75,0],[1,0.25,0],[1,0.5,0],[1,0.75,0]];outlineConnect=0;fontColor=#232F3E;gradientColor=#4D72F3;gradientDirection=north;fillColor=#3334B9;strokeColor=#ffffff;dashed=0;verticalLabelPosition=bottom;verticalAlign=top;align=center;html=1;fontSize=12;fontStyle=0;aspect=fixed;shape=mxgraph.aws4.resourceIcon;resIcon=mxgraph.aws4.command_line_interface;" vertex="1" parent="1">
          <mxGeometry x="400" y="480" width="40" height="40" as="geometry" />
        </mxCell>
        <mxCell id="C1L38_kdIar_jfCzdg87-45" value="" style="edgeStyle=elbowEdgeStyle;elbow=horizontal;endArrow=classic;html=1;rounded=1;endSize=8;startSize=8;shadow=1;strokeColor=#df1111;startArrow=classic;startFill=1;" edge="1" parent="1" source="C1L38_kdIar_jfCzdg87-12" target="C1L38_kdIar_jfCzdg87-25">
          <mxGeometry width="50" height="50" relative="1" as="geometry">
            <mxPoint x="590" y="460" as="sourcePoint" />
            <mxPoint x="640" y="410" as="targetPoint" />
            <Array as="points">
              <mxPoint x="620" y="620" />
            </Array>
          </mxGeometry>
        </mxCell>
        <mxCell id="C1L38_kdIar_jfCzdg87-46" value="" style="image;html=1;image=img/lib/clip_art/general/Full_Folder_128x128.png" vertex="1" parent="1">
          <mxGeometry x="595" y="557" width="50" height="40" as="geometry" />
        </mxCell>
        <mxCell id="C1L38_kdIar_jfCzdg87-54" value="" style="shape=image;verticalLabelPosition=bottom;labelBackgroundColor=default;verticalAlign=top;aspect=fixed;imageAspect=0;image=https://logos-world.net/wp-content/uploads/2022/02/Microsoft-Power-BI-Symbol.png;clipPath=inset(0% 24.67% 0% 23.33%);" vertex="1" parent="1">
          <mxGeometry x="1230" y="308.34000000000003" width="192.12" height="208.13" as="geometry" />
        </mxCell>
        <mxCell id="C1L38_kdIar_jfCzdg87-55" value="" style="shape=image;verticalLabelPosition=bottom;labelBackgroundColor=default;verticalAlign=top;aspect=fixed;imageAspect=0;image=https://upload.wikimedia.org/wikipedia/commons/c/c0/Opsview_Monitor_5.0_Dashboard.png;" vertex="1" parent="1">
          <mxGeometry x="1580" y="340" width="225.62" height="114.5" as="geometry" />
        </mxCell>
        <mxCell id="C1L38_kdIar_jfCzdg87-56" value="" style="edgeStyle=elbowEdgeStyle;elbow=horizontal;endArrow=classic;html=1;rounded=1;endSize=8;startSize=8;exitX=1;exitY=0.5;exitDx=0;exitDy=0;entryX=0;entryY=0.5;entryDx=0;entryDy=0;strokeColor=#e12323;shadow=1;" edge="1" parent="1" source="C1L38_kdIar_jfCzdg87-25" target="C1L38_kdIar_jfCzdg87-54">
          <mxGeometry width="50" height="50" relative="1" as="geometry">
            <mxPoint x="1030" y="430" as="sourcePoint" />
            <mxPoint x="1080" y="380" as="targetPoint" />
            <Array as="points">
              <mxPoint x="1090" y="460" />
            </Array>
          </mxGeometry>
        </mxCell>
        <mxCell id="C1L38_kdIar_jfCzdg87-57" value="" style="shape=image;verticalLabelPosition=bottom;labelBackgroundColor=default;verticalAlign=top;aspect=fixed;imageAspect=0;image=https://www.kabel.es/wp-content/uploads/2019/01/visualizacion-powerBI-1-2.png;" vertex="1" parent="1">
          <mxGeometry x="1450" y="112.19" width="188.3" height="105.61" as="geometry" />
        </mxCell>
        <mxCell id="C1L38_kdIar_jfCzdg87-58" value="" style="shape=image;verticalLabelPosition=bottom;labelBackgroundColor=default;verticalAlign=top;aspect=fixed;imageAspect=0;image=https://images.squarespace-cdn.com/content/v1/57cfc8a3d482e945c66724f7/1625203781715-U0VQTDT65C32KVBI926X/Power+BI+Dashboard+Example.PNG;" vertex="1" parent="1">
          <mxGeometry x="1450" y="620" width="193.55" height="110" as="geometry" />
        </mxCell>
        <mxCell id="C1L38_kdIar_jfCzdg87-59" value="" style="endArrow=classic;html=1;rounded=1;exitX=0.663;exitY=-0.01;exitDx=0;exitDy=0;exitPerimeter=0;strokeColor=#e51f1f;shadow=1;" edge="1" parent="1" source="C1L38_kdIar_jfCzdg87-54" target="C1L38_kdIar_jfCzdg87-57">
          <mxGeometry width="50" height="50" relative="1" as="geometry">
            <mxPoint x="1080" y="340" as="sourcePoint" />
            <mxPoint x="1130" y="290" as="targetPoint" />
          </mxGeometry>
        </mxCell>
        <mxCell id="C1L38_kdIar_jfCzdg87-60" value="" style="endArrow=classic;html=1;rounded=1;exitX=1.008;exitY=0.471;exitDx=0;exitDy=0;exitPerimeter=0;strokeColor=#e51f1f;shadow=1;entryX=0;entryY=0.5;entryDx=0;entryDy=0;" edge="1" parent="1" source="C1L38_kdIar_jfCzdg87-54" target="C1L38_kdIar_jfCzdg87-55">
          <mxGeometry width="50" height="50" relative="1" as="geometry">
            <mxPoint x="1325" y="429" as="sourcePoint" />
            <mxPoint x="1385" y="376" as="targetPoint" />
          </mxGeometry>
        </mxCell>
        <mxCell id="C1L38_kdIar_jfCzdg87-61" value="" style="endArrow=classic;html=1;rounded=1;exitX=0.668;exitY=1.005;exitDx=0;exitDy=0;exitPerimeter=0;strokeColor=#e51f1f;shadow=1;entryX=0.108;entryY=-0.018;entryDx=0;entryDy=0;entryPerimeter=0;" edge="1" parent="1" source="C1L38_kdIar_jfCzdg87-54" target="C1L38_kdIar_jfCzdg87-58">
          <mxGeometry width="50" height="50" relative="1" as="geometry">
            <mxPoint x="1325" y="429" as="sourcePoint" />
            <mxPoint x="1385" y="376" as="targetPoint" />
          </mxGeometry>
        </mxCell>
        <mxCell id="C1L38_kdIar_jfCzdg87-62" value="" style="shape=image;verticalLabelPosition=bottom;labelBackgroundColor=default;verticalAlign=top;aspect=fixed;imageAspect=0;image=https://1000logos.net/wp-content/uploads/2021/04/Red-Hat-logo.png;clipPath=inset(20.41% 64.33% 27.51% 0.67%);" vertex="1" parent="1">
          <mxGeometry x="928.41" y="11.86" width="143.19" height="120" as="geometry" />
        </mxCell>
        <mxCell id="C1L38_kdIar_jfCzdg87-65" value="" style="shape=image;verticalLabelPosition=bottom;labelBackgroundColor=default;verticalAlign=top;aspect=fixed;imageAspect=0;image=https://upload.wikimedia.org/wikipedia/commons/3/34/VMware_Workstation_11.0_icon.png;" vertex="1" parent="1">
          <mxGeometry x="760" y="11.86" width="124.07" height="124.07" as="geometry" />
        </mxCell>
        <mxCell id="C1L38_kdIar_jfCzdg87-66" value="" style="shape=image;verticalLabelPosition=bottom;labelBackgroundColor=default;verticalAlign=top;aspect=fixed;imageAspect=0;image=https://fundacionmasqueideas.org/wp-content/uploads/2014/03/logo-cruz-portada-fundacionMQI.png;" vertex="1" parent="1">
          <mxGeometry x="881.4100000000001" y="46.86" width="50" height="50" as="geometry" />
        </mxCell>
        <mxCell id="C1L38_kdIar_jfCzdg87-67" value="" style="image;aspect=fixed;html=1;points=[];align=center;fontSize=12;image=img/lib/azure2/databases/SQL_Data_Warehouses.svg;" vertex="1" parent="1">
          <mxGeometry x="1047" y="428" width="98.46" height="100" as="geometry" />
        </mxCell>
        <mxCell id="C1L38_kdIar_jfCzdg87-68" value="&lt;b&gt;&lt;font color=&quot;#030303&quot;&gt;Sakila Datawarehouse&lt;/font&gt;&lt;/b&gt;" style="text;html=1;strokeColor=none;fillColor=none;align=center;verticalAlign=middle;whiteSpace=wrap;rounded=0;" vertex="1" parent="1">
          <mxGeometry x="1050" y="530" width="100" height="30" as="geometry" />
        </mxCell>
        <mxCell id="C1L38_kdIar_jfCzdg87-71" value="&lt;font color=&quot;#030303&quot; style=&quot;font-size: 6px;&quot;&gt;&lt;b style=&quot;font-size: 6px;&quot;&gt;C:\Users\Eduardo\Documents\Sakila-db&lt;/b&gt;&lt;/font&gt;" style="text;html=1;strokeColor=none;fillColor=none;align=center;verticalAlign=middle;whiteSpace=wrap;rounded=0;fontSize=6;" vertex="1" parent="1">
          <mxGeometry x="190" y="93.19" width="120" height="16.81" as="geometry" />
        </mxCell>
        <mxCell id="C1L38_kdIar_jfCzdg87-72" value="" style="image;html=1;image=img/lib/clip_art/general/Full_Folder_128x128.png" vertex="1" parent="1">
          <mxGeometry x="150" y="90" width="40" height="37" as="geometry" />
        </mxCell>
        <mxCell id="C1L38_kdIar_jfCzdg87-73" value="&lt;font color=&quot;#030303&quot; style=&quot;font-size: 6px;&quot;&gt;&lt;b style=&quot;font-size: 6px;&quot;&gt;sakila_schema.sql (first)&lt;/b&gt;&lt;/font&gt;" style="text;html=1;strokeColor=none;fillColor=none;align=center;verticalAlign=middle;whiteSpace=wrap;rounded=0;fontSize=6;" vertex="1" parent="1">
          <mxGeometry x="207" y="142.52" width="70" height="16.81" as="geometry" />
        </mxCell>
        <mxCell id="C1L38_kdIar_jfCzdg87-74" value="&lt;font color=&quot;#030303&quot; style=&quot;font-size: 6px;&quot;&gt;&lt;b style=&quot;font-size: 6px;&quot;&gt;sakila_data.sql (second)&lt;/b&gt;&lt;/font&gt;" style="text;html=1;strokeColor=none;fillColor=none;align=center;verticalAlign=middle;whiteSpace=wrap;rounded=0;fontSize=6;" vertex="1" parent="1">
          <mxGeometry x="207" y="176.59" width="60" height="16.81" as="geometry" />
        </mxCell>
        <mxCell id="C1L38_kdIar_jfCzdg87-75" value="" style="endArrow=classic;html=1;rounded=1;exitX=0.41;exitY=0.973;exitDx=0;exitDy=0;exitPerimeter=0;entryX=0;entryY=0.5;entryDx=0;entryDy=0;entryPerimeter=0;strokeColor=#c02121;shadow=1;" edge="1" parent="1" source="C1L38_kdIar_jfCzdg87-72" target="C1L38_kdIar_jfCzdg87-79">
          <mxGeometry width="50" height="50" relative="1" as="geometry">
            <mxPoint x="250" y="220" as="sourcePoint" />
            <mxPoint x="190.34000000000003" y="153.99" as="targetPoint" />
            <Array as="points">
              <mxPoint x="170" y="150" />
            </Array>
          </mxGeometry>
        </mxCell>
        <mxCell id="C1L38_kdIar_jfCzdg87-76" value="" style="endArrow=classic;html=1;rounded=1;entryX=0.042;entryY=0.452;entryDx=0;entryDy=0;entryPerimeter=0;strokeColor=#c02121;exitX=0.4;exitY=0.982;exitDx=0;exitDy=0;exitPerimeter=0;shadow=1;" edge="1" parent="1" source="C1L38_kdIar_jfCzdg87-72" target="C1L38_kdIar_jfCzdg87-80">
          <mxGeometry width="50" height="50" relative="1" as="geometry">
            <mxPoint x="170" y="130" as="sourcePoint" />
            <mxPoint x="190" y="186.31999999999994" as="targetPoint" />
            <Array as="points">
              <mxPoint x="170" y="170" />
            </Array>
          </mxGeometry>
        </mxCell>
        <mxCell id="C1L38_kdIar_jfCzdg87-77" value="" style="shape=curlyBracket;whiteSpace=wrap;html=1;rounded=1;flipH=1;labelPosition=right;verticalLabelPosition=middle;align=left;verticalAlign=middle;strokeColor=#d21919;shadow=1;" vertex="1" parent="1">
          <mxGeometry x="263" y="131" width="20" height="73" as="geometry" />
        </mxCell>
        <mxCell id="C1L38_kdIar_jfCzdg87-79" value="" style="sketch=0;aspect=fixed;pointerEvents=1;shadow=0;dashed=0;html=1;strokeColor=none;labelPosition=center;verticalLabelPosition=bottom;verticalAlign=top;align=center;fillColor=#0080f0;shape=mxgraph.azure.script_file" vertex="1" parent="1">
          <mxGeometry x="190" y="139.22" width="22.01" height="23.41" as="geometry" />
        </mxCell>
        <mxCell id="C1L38_kdIar_jfCzdg87-80" value="" style="sketch=0;aspect=fixed;pointerEvents=1;shadow=0;dashed=0;html=1;strokeColor=none;labelPosition=center;verticalLabelPosition=bottom;verticalAlign=top;align=center;fillColor=#0080f0;shape=mxgraph.azure.script_file" vertex="1" parent="1">
          <mxGeometry x="190" y="169.99" width="22.01" height="23.41" as="geometry" />
        </mxCell>
        <mxCell id="C1L38_kdIar_jfCzdg87-83" value="" style="sketch=0;points=[[0,0,0],[0.25,0,0],[0.5,0,0],[0.75,0,0],[1,0,0],[0,1,0],[0.25,1,0],[0.5,1,0],[0.75,1,0],[1,1,0],[0,0.25,0],[0,0.5,0],[0,0.75,0],[1,0.25,0],[1,0.5,0],[1,0.75,0]];outlineConnect=0;fontColor=#232F3E;gradientColor=#4D72F3;gradientDirection=north;fillColor=#3334B9;strokeColor=#ffffff;dashed=0;verticalLabelPosition=bottom;verticalAlign=top;align=center;html=1;fontSize=12;fontStyle=0;aspect=fixed;shape=mxgraph.aws4.resourceIcon;resIcon=mxgraph.aws4.command_line_interface;" vertex="1" parent="1">
          <mxGeometry x="282" y="148.76000000000002" width="37.48" height="37.48" as="geometry" />
        </mxCell>
        <mxCell id="C1L38_kdIar_jfCzdg87-82" value="" style="sketch=0;outlineConnect=0;fontColor=#232F3E;gradientColor=none;fillColor=#B0084D;strokeColor=none;dashed=0;verticalLabelPosition=bottom;verticalAlign=top;align=center;html=1;fontSize=12;fontStyle=0;aspect=fixed;pointerEvents=1;shape=mxgraph.aws4.automation;" vertex="1" parent="1">
          <mxGeometry x="310" y="139.22" width="18" height="18" as="geometry" />
        </mxCell>
        <mxCell id="C1L38_kdIar_jfCzdg87-84" value="" style="endArrow=classic;html=1;rounded=1;entryX=0.008;entryY=0.442;entryDx=0;entryDy=0;entryPerimeter=0;exitX=1;exitY=0.5;exitDx=0;exitDy=0;exitPerimeter=0;strokeColor=#c11a1a;shadow=1;" edge="1" parent="1" source="C1L38_kdIar_jfCzdg87-83" target="C1L38_kdIar_jfCzdg87-8">
          <mxGeometry width="50" height="50" relative="1" as="geometry">
            <mxPoint x="300" y="180" as="sourcePoint" />
            <mxPoint x="350" y="130" as="targetPoint" />
          </mxGeometry>
        </mxCell>
        <mxCell id="C1L38_kdIar_jfCzdg87-25" value="" style="shape=image;verticalLabelPosition=bottom;labelBackgroundColor=default;verticalAlign=top;aspect=fixed;imageAspect=0;image=https://upload.wikimedia.org/wikipedia/commons/b/bb/Apache_Hive_logo.svg;" vertex="1" parent="1">
          <mxGeometry x="677.5" y="437.25" width="195" height="175.5" as="geometry" />
        </mxCell>
      </root>
    </mxGraphModel>
  </diagram>
</mxfile>
